<svg id="add_shopping_cart-24px" xmlns="http://www.w3.org/2000/svg" width="100" height="100" viewBox="0 0 100 100">
  <path id="Path_15" data-name="Path 15" d="M0,0H100V100H0ZM76.292,25l-11.5,20.833Z" fill="none"/>
  <path id="Path_16" data-name="Path 16" d="M48.7,37.952h9.54V24.1h14.31V14.857H58.238V1H48.7V14.857H34.389V24.1H48.7ZM29.619,79.524a9.243,9.243,0,1,0,9.54,9.238A9.378,9.378,0,0,0,29.619,79.524Zm47.7,0a9.243,9.243,0,1,0,9.54,9.238A9.378,9.378,0,0,0,77.317,79.524ZM30.43,64.512l.143-.554,4.293-7.529H70.4a9.547,9.547,0,0,0,8.347-4.758L97.16,19.291l-8.3-4.434h-.048L83.566,24.1,70.4,47.19H36.917l-.62-1.247L25.612,24.1l-4.531-9.238L16.6,5.619H1v9.238h9.54L27.711,49.916,21.272,61.232a8.712,8.712,0,0,0-1.192,4.434,9.42,9.42,0,0,0,9.54,9.238H86.857V65.667H31.622A1.193,1.193,0,0,1,30.43,64.512Z" fill="#fff"/>
</svg>
