<svg id="list_alt-24px" xmlns="http://www.w3.org/2000/svg" width="80" height="80" viewBox="0 0 80 80">
  <path id="Path_10" data-name="Path 10" d="M68.778,11.222V68.778H11.222V11.222H68.778M73.3,3H6.7A3.685,3.685,0,0,0,3,6.7V73.3A3.974,3.974,0,0,0,6.7,77H73.3A4.36,4.36,0,0,0,77,73.3V6.7A3.974,3.974,0,0,0,73.3,3ZM35.889,19.444H60.556v8.222H35.889Zm0,16.444H60.556v8.222H35.889Zm0,16.444H60.556v8.222H35.889ZM19.444,19.444h8.222v8.222H19.444Zm0,16.444h8.222v8.222H19.444Zm0,16.444h8.222v8.222H19.444Z" transform="translate(0 0)" fill="#4d6cb8"/>
  <path id="Path_11" data-name="Path 11" d="M0,0H80V80H0Z" fill="none"/>
</svg>
