<svg id="videogame_asset-24px" xmlns="http://www.w3.org/2000/svg" width="80" height="80" viewBox="0 0 80 80">
  <path id="Path_12" data-name="Path 12" d="M0,0V80H80V0ZM76.667,53.333A6.686,6.686,0,0,1,70,60H10a6.686,6.686,0,0,1-6.667-6.667V26.667A6.686,6.686,0,0,1,10,20H70a6.686,6.686,0,0,1,6.667,6.667Z" fill="none"/>
  <path id="Path_13" data-name="Path 13" d="M67.667,6h-60A6.686,6.686,0,0,0,1,12.667V39.333A6.686,6.686,0,0,0,7.667,46h60a6.686,6.686,0,0,0,6.667-6.667V12.667A6.686,6.686,0,0,0,67.667,6ZM34.333,29.333h-10v10H17.667v-10h-10V22.667h10v-10h6.667v10h10Zm15,6.667a5,5,0,1,1,5-5A4.993,4.993,0,0,1,49.333,36ZM62.667,26a5,5,0,1,1,5-5A4.993,4.993,0,0,1,62.667,26Z" transform="translate(2.333 14)" fill="#4d6cb8"/>
</svg>
